# xmcd
#
# Track frame offsets:
#	150
#	17128
#	38910
#	63942
#	79166
#	98875
#	114207
#	132668
#	148469
#	169992
#
# Disc length: 2519 seconds
#
# Revision: 1
# Processed by: cddbd v1.5.2PL0 Copyright (c) Steve Scherf et al.
# Submitted via: audiograbber 1.83.01
#
DISCID=8d09d50a
DTITLE=Barnburner - Bangers II: Scum Of The Earth
DYEAR=2011
DGENRE=stoner rock
TTITLE0=Scum Of The Earth
TTITLE1=Dark Side Of The Barn
TTITLE2=Gate Creeper
TTITLE3=Keg Stand And Deliver
TTITLE4=The Earth's Crust
TTITLE5=Quest For The Cure
TTITLE6=Brother Fear
TTITLE7=Skid Marks The Spot
TTITLE8=Crushing Defeat
TTITLE9=Ghost Jam
EXTD=
EXTT0=
EXTT1=
EXTT2=
EXTT3=
EXTT4=
EXTT5=
EXTT6=
EXTT7=
EXTT8=
EXTT9=
PLAYORDER=
